<?xml version="1.0" encoding="UTF-8"?> <svg xmlns="http://www.w3.org/2000/svg" version="1.2" viewBox="0 0 410 409" width="410" height="409"><title>New Project</title><style> .s0 { fill: #00b189 } </style><g id="Layer"><path id="Layer" fill-rule="evenodd" class="s0" d="m187.6 408q-0.7 0-1.4-0.1-0.6 0-1.3-0.1-0.7 0-1.4-0.1-0.6-0.1-1.3-0.2l-28.5-5.6q-2.7-0.5-5.3-1.5-2.5-1-4.8-2.6-2.3-1.5-4.3-3.4-2-1.9-3.5-4.2-1.5-2.3-2.6-4.8-1.1-2.5-1.6-5.2-0.6-2.7-0.6-5.4 0-2.7 0.6-5.4l3.2-16.3q-3.4-1.7-6.7-3.5-3.3-1.7-6.6-3.7-3.2-1.9-6.3-4-3.2-2-6.2-4.2l-13.1 10.4c-2.9 2.3-6.2 4-9.7 5-3.5 1.1-7.2 1.4-10.9 1-3.6-0.4-7.2-1.5-10.4-3.2-3.2-1.7-6.1-4.1-8.4-6.9l-18.3-22.4c-2.3-2.8-4-6.1-5.1-9.6-1-3.5-1.3-7.2-0.9-10.8 0.3-3.6 1.5-7.1 3.2-10.3 1.8-3.2 4.2-6 7-8.3l13.1-10.5q-1.6-3.4-2.9-6.8-1.4-3.5-2.6-7-1.3-3.6-2.3-7.2-1.1-3.5-2-7.2l-16.8-0.3c-3.6 0-7.3-0.8-10.6-2.3-3.4-1.4-6.4-3.5-9-6.1-2.5-2.6-4.5-5.7-5.9-9.1-1.4-3.4-2-7.1-2-10.7l0.6-28.8c0.1-3.6 0.9-7.3 2.4-10.6 1.5-3.3 3.6-6.4 6.2-8.9 2.7-2.5 5.8-4.5 9.2-5.8 3.4-1.3 7.1-2 10.7-1.9l16.8 0.3q1-3.6 2.2-7.1 1.2-3.6 2.6-7 1.3-3.5 2.9-6.9 1.5-3.5 3.2-6.8l-12.7-10.9c-2.8-2.4-5.1-5.3-6.7-8.6-1.6-3.2-2.6-6.8-2.9-10.4-0.2-3.7 0.3-7.3 1.4-10.8 1.2-3.4 3-6.6 5.5-9.4l19.1-21.7c2.4-2.7 5.3-5 8.6-6.6 3.3-1.6 6.9-2.6 10.6-2.8 3.6-0.3 7.3 0.2 10.8 1.4 3.5 1.1 6.7 3 9.5 5.4l12.7 10.9q3.1-2.1 6.3-4.1 3.2-1.9 6.5-3.7 3.3-1.8 6.7-3.5 3.4-1.7 6.8-3.2l-2.6-16.4q-0.4-2.7-0.3-5.4 0.1-2.7 0.8-5.4 0.6-2.7 1.8-5.1 1.1-2.5 2.8-4.7 1.6-2.2 3.6-4.1 2.1-1.8 4.4-3.3 2.4-1.4 5-2.3 2.6-1 5.3-1.4l28.7-4.4q2.7-0.5 5.5-0.4 2.7 0.1 5.4 0.8 2.7 0.6 5.2 1.8 2.5 1.1 4.7 2.7 2.3 1.6 4.1 3.6 1.9 2 3.4 4.4 1.4 2.3 2.4 4.9 0.9 2.6 1.3 5.3l2.6 16.4q3.8 0.4 7.5 0.9 3.8 0.6 7.5 1.3 3.7 0.7 7.3 1.6 3.7 0.9 7.3 1.9l8.7-14.2q1.6-2.6 3.7-4.8 2.1-2.2 4.7-3.9 2.5-1.7 5.4-2.8 2.8-1.1 5.8-1.6 2.5-0.4 4.9-0.3 2.5 0 4.9 0.5 2.4 0.4 4.7 1.3 2.2 0.9 4.4 2.1l24.8 14.9c3.2 1.8 5.9 4.3 8.1 7.2 2.2 3 3.8 6.3 4.7 9.8 0.9 3.6 1 7.3 0.5 10.9-0.6 3.6-1.8 7-3.7 10.2l-8.7 14.2q2.6 2.7 5.1 5.5 2.5 2.8 4.9 5.7 2.4 2.9 4.6 5.9 2.3 3 4.4 6.1l15.8-5.4q0.6-0.2 1.2-0.4 0.6-0.1 1.2-0.3 0.6-0.1 1.2-0.3 0.6-0.1 1.2-0.2c3.2-0.5 6.5-0.4 9.7 0.2 3.2 0.6 6.3 1.8 9.1 3.4 2.8 1.7 5.2 3.9 7.3 6.4 2.1 2.5 3.7 5.4 4.7 8.4l9.5 27.2q0.9 2.6 1.2 5.3 0.4 2.7 0.3 5.5-0.2 2.7-0.9 5.3-0.7 2.7-2 5.1-1.2 2.5-2.9 4.7-1.6 2.2-3.7 4-2.1 1.8-4.5 3.1-2.3 1.4-5 2.3l-15.9 5.4q0.3 3.7 0.4 7.4 0.1 3.8 0.1 7.5-0.1 3.7-0.3 7.5-0.3 3.7-0.7 7.4l15.7 6c3.4 1.3 6.5 3.2 9.2 5.7 2.6 2.5 4.8 5.5 6.3 8.8 1.5 3.4 2.3 7 2.4 10.6 0.1 3.7-0.5 7.3-1.8 10.7l-10.5 26.9q-1.4 3.4-3.5 6.3-2.2 3-5.1 5.3-2.9 2.3-6.2 3.8-3.4 1.4-7 2-1.8 0.3-3.7 0.3-1.8 0.1-3.6-0.1-1.9-0.2-3.6-0.6-1.8-0.5-3.5-1.1l-15.7-6q-2.2 3-4.6 5.9-2.3 3-4.8 5.8-2.5 2.8-5.1 5.5-2.6 2.7-5.3 5.3l8.1 14.5q1.4 2.4 2.2 5 0.8 2.6 1.1 5.3 0.4 2.7 0.1 5.5-0.2 2.7-1 5.3-0.8 2.7-2 5.1-1.3 2.4-3 4.6-1.7 2.1-3.8 3.9-2.2 1.7-4.6 3l-25.4 13.9c-3.2 1.8-6.8 2.9-10.4 3.3-3.6 0.4-7.3 0.1-10.9-0.9-3.5-1-6.8-2.7-9.7-4.9-2.9-2.3-5.3-5.1-7.1-8.3l-8.1-14.6c-4.9 1.2-9.9 2.2-14.8 3q-7.4 1.1-15 1.6l-3.2 16.4c-0.7 3.1-1.8 6.1-3.5 8.9-1.7 2.7-3.8 5.1-6.3 7.2-2.5 2-5.3 3.6-8.3 4.6-3 1.1-6.2 1.7-9.4 1.7zm-78.8-93.7l5.8 4.6q3.9 3.1 8.1 6 4.1 2.8 8.4 5.4 4.3 2.6 8.7 4.8 4.5 2.3 9.1 4.3l6.8 2.9-6 30.6q-0.2 0.9-0.2 1.8 0 1 0.2 1.9 0.2 0.9 0.5 1.8 0.4 0.8 0.9 1.6 0.5 0.8 1.2 1.4 0.7 0.7 1.5 1.2 0.7 0.5 1.6 0.9 0.9 0.3 1.8 0.5l28.5 5.5c1.3 0.3 2.5 0.3 3.8 0 1.2-0.2 2.4-0.7 3.4-1.4 1-0.7 1.9-1.6 2.6-2.6 0.7-1.1 1.2-2.2 1.5-3.5l6-30.6 7.5-0.1q5-0.1 10-0.6 5-0.4 9.9-1.2 5-0.7 9.9-1.8 4.9-1.1 9.7-2.6l7.1-2.1 15.3 27.3c0.6 1.1 1.4 2.1 2.4 2.9 1 0.7 2.1 1.3 3.3 1.7 1.2 0.3 2.5 0.4 3.7 0.3 1.3-0.2 2.5-0.6 3.6-1.2l25.4-13.9q0.8-0.4 1.6-1 0.7-0.6 1.3-1.3 0.5-0.8 1-1.6 0.4-0.8 0.7-1.7 0.2-0.9 0.3-1.9 0.1-0.9 0-1.8-0.1-1-0.4-1.8-0.3-0.9-0.7-1.7l-15.3-27.3 5.6-4.9q3.8-3.3 7.3-6.8 3.6-3.5 6.9-7.2 3.3-3.8 6.3-7.7 3-4 5.8-8.1l4.1-6.2 29.4 11.2c1.2 0.5 2.4 0.7 3.7 0.7 1.2-0.1 2.5-0.3 3.6-0.8 1.1-0.5 2.2-1.3 3.1-2.2 0.8-0.9 1.5-1.9 2-3.1l10.4-26.8c0.5-1.2 0.7-2.4 0.7-3.7-0.1-1.2-0.4-2.5-0.9-3.6-0.5-1.1-1.2-2.2-2.1-3-0.9-0.9-2-1.6-3.2-2l-29.4-11.2 1.2-7.3q0.7-4.9 1.2-9.8 0.4-5 0.5-9.9 0.1-5-0.2-10-0.2-4.9-0.8-9.8l-0.9-7.4 29.9-10.1q0.9-0.3 1.7-0.8 0.8-0.4 1.5-1 0.7-0.7 1.3-1.4 0.5-0.7 1-1.6 0.4-0.8 0.6-1.7 0.3-0.9 0.3-1.9 0.1-0.9-0.1-1.8-0.1-0.9-0.4-1.8l-9.4-27.2q-0.6-1.6-1.6-2.9-1.1-1.3-2.5-2.2-1.5-0.9-3.1-1.2-1.7-0.3-3.3 0-0.2 0-0.5 0-0.2 0.1-0.4 0.1-0.2 0.1-0.4 0.2-0.2 0-0.4 0.1l-29.8 10.1-3.8-6.3q-2.6-4.3-5.5-8.3-2.9-4.1-6-8-3.2-3.8-6.6-7.5-3.4-3.6-7.1-7l-5.4-5 16.3-26.8c0.6-1 1.1-2.2 1.2-3.5 0.2-1.2 0.2-2.4-0.1-3.7-0.3-1.2-0.9-2.3-1.6-3.3-0.8-1-1.7-1.8-2.8-2.5l-24.9-14.8c-1-0.7-2.2-1.1-3.5-1.3-1.2-0.2-2.5-0.1-3.7 0.2-1.2 0.3-2.4 0.8-3.4 1.6-1 0.7-1.9 1.6-2.5 2.7l-16.3 26.7-7-2.4q-4.8-1.6-9.6-2.9-4.9-1.2-9.8-2.2-4.9-1-9.9-1.6-5-0.6-10-0.9l-7.4-0.4-4.9-30.8q-0.1-0.9-0.5-1.8-0.3-0.9-0.8-1.7-0.5-0.8-1.1-1.5-0.7-0.6-1.4-1.2-0.8-0.5-1.6-0.9-0.9-0.4-1.8-0.6-0.9-0.3-1.9-0.3-0.9 0-1.9 0.1l-28.7 4.5q-0.9 0.1-1.8 0.4-0.9 0.4-1.7 0.8-0.8 0.5-1.5 1.2-0.7 0.6-1.2 1.4-0.6 0.7-1 1.5-0.4 0.9-0.6 1.8-0.2 0.9-0.2 1.8-0.1 1 0.1 1.9l4.9 30.8-7 2.7q-4.7 1.8-9.2 3.8-4.6 2.1-8.9 4.5-4.4 2.4-8.6 5.1-4.3 2.7-8.3 5.7l-6 4.4-23.7-20.5q-0.8-0.7-1.7-1.2-1-0.5-2-0.7-1-0.3-2-0.4-1.1-0.1-2.1 0.1-0.8 0.1-1.6 0.4-0.8 0.3-1.5 0.7-0.8 0.4-1.4 0.9-0.7 0.5-1.2 1.1l-19.1 21.7c-0.8 1-1.5 2-1.9 3.2-0.4 1.2-0.5 2.5-0.5 3.7 0.1 1.2 0.5 2.5 1 3.6 0.6 1.1 1.4 2.1 2.3 2.9l23.8 20.5-3.6 6.5q-2.4 4.3-4.6 8.8-2.1 4.5-3.9 9.1-1.8 4.7-3.3 9.4-1.5 4.7-2.6 9.6l-1.7 7.1-31.5-0.5q-0.2 0-0.5 0-0.2 0-0.4 0-0.2 0-0.4 0-0.2 0-0.4 0.1-1.7 0.2-3.2 1-1.4 0.8-2.5 2.1-1.1 1.3-1.7 2.8-0.7 1.6-0.7 3.3l-0.5 28.7c0 1.3 0.2 2.5 0.6 3.7 0.5 1.1 1.2 2.2 2.1 3.1 0.8 0.9 1.9 1.6 3 2.1 1.2 0.5 2.4 0.7 3.7 0.8l31.5 0.5 1.4 7.3q1 4.8 2.3 9.6 1.3 4.8 2.9 9.5 1.6 4.7 3.6 9.3 1.9 4.6 4.2 9l3.3 6.6-24.5 19.6c-1 0.8-1.8 1.7-2.4 2.8-0.6 1.1-1 2.3-1.1 3.6-0.1 1.2 0 2.4 0.3 3.6 0.4 1.2 1 2.4 1.8 3.3l18.2 22.4q0.8 1 1.9 1.7 1 0.7 2.2 1.2 1.1 0.4 2.4 0.6 1.2 0.1 2.5-0.1 0.6-0.1 1.2-0.3 0.6-0.1 1.2-0.4 0.5-0.2 1.1-0.6 0.5-0.3 1-0.7zm98.6 14.5c-60.6 0-114-43.7-123.7-104.8-1.3-8-1.8-16.1-1.4-24.2 0.3-8.2 1.4-16.2 3.4-24.1 1.9-7.9 4.6-15.6 8.1-23 3.4-7.3 7.6-14.3 12.4-20.8 4.9-6.6 10.4-12.7 16.4-18.3 6-5.5 12.6-10.4 19.6-14.6 7-4.3 14.4-7.8 22.1-10.6 7.7-2.8 15.6-4.8 23.7-6 68.2-10.7 132.5 35.7 143.2 103.2 10.7 67.5-36.1 131.1-104.3 141.7q-2.4 0.3-4.9 0.6-2.4 0.3-4.9 0.5-2.4 0.2-4.8 0.3-2.5 0.1-4.9 0.1zm0.1-229.7q-2.1 0-4.2 0.1-2.1 0.1-4.1 0.2-2.1 0.2-4.2 0.4-2.1 0.3-4.1 0.6c-6.9 1.1-13.7 2.8-20.3 5.2-6.5 2.3-12.8 5.3-18.8 9-6 3.6-11.6 7.8-16.7 12.5-5.1 4.7-9.8 9.9-13.9 15.5-4.2 5.6-7.7 11.5-10.7 17.8-2.9 6.3-5.2 12.8-6.9 19.6-1.6 6.7-2.6 13.6-2.9 20.5-0.3 6.9 0.1 13.9 1.2 20.7 9.2 57.6 63.9 97.1 122.1 88 58.2-9 98.1-63.2 88.9-120.8-8.2-52-53.8-89.3-105.4-89.3z"></path><path id="Layer" fill-rule="evenodd" class="s0" d="m300.3 190.7q0.3 2.3 0.5 4.6 0.3 2.3 0.4 4.6 0.1 2.3 0.1 4.6c0 50.7-41.5 91.7-92.7 91.7-51.2 0-92.7-41-92.7-91.7 0-50.7 41.5-91.7 92.7-91.7q2.2 0 4.4 0.1 2.2 0.1 4.4 0.3 2.2 0.2 4.4 0.5 2.2 0.3 4.3 0.7-1.3 2.7-2.2 5.5-1 2.8-1.7 5.7-0.6 2.9-1 5.9-0.3 2.9-0.3 5.9c0 29.9 24.5 54.2 54.7 54.2q3.1 0 6.2-0.4 3-0.3 6-1 3-0.7 6-1.7 2.9-1 5.6-2.4 0.5 2.3 0.9 4.6zm-86.5 12.5c2.1-0.8 3.9-2 5.5-3.6 1.6-1.6 2.9-3.4 3.7-5.5 0.9-2.1 1.3-4.3 1.4-6.5 0-6.8-4.1-13-10.4-15.6-6.3-2.6-13.6-1.2-18.4 3.6-4.9 4.8-6.4 12-3.8 18.3 2.6 6.4 8.7 10.5 15.5 10.6 2.2 0 4.4-0.4 6.5-1.3z"></path></g></svg> 